<svg width="190" height="190" viewBox="0 0 190 190" fill="none" xmlns="http://www.w3.org/2000/svg">
<path d="M176.18 140.83C179.98 134.732 180.661 120.794 180.581 110.409C180.527 103.232 180.114 97.7565 180.114 97.7565C178.113 89.1279 175.713 82.4351 173.139 77.2497C165.67 73.931 162.456 76.4477 160.442 81.4119L168.324 88.4641L158.682 89.5842L158.442 89.8607L165.11 95.8206L155.841 97.7426C154.414 101.932 152.4 105.915 149.04 108.888C139.037 117.71 127.968 117.434 112.618 110.368C86.1845 98.2266 58.5778 97.9362 37.2526 100.909L37.266 101.034C49.4956 106.551 63.6057 121.637 85.7577 127.542C88.7584 130.058 92.5727 132.271 96.8937 134.124C98.7208 134.912 100.628 135.631 102.602 136.281C104.882 159.443 160.469 166.08 176.18 140.83Z" fill="#FEF4A9"/>
<path d="M149.04 108.902C152.4 105.929 154.414 101.946 155.841 97.7565C156.748 95.1015 157.415 92.3774 158.042 89.7778C158.789 86.6803 159.482 83.7765 160.429 81.4257C162.443 76.4615 165.657 73.9448 173.125 77.2635C162.883 56.5632 150.107 59.8957 150.107 59.8957C145.465 32.0325 129.395 24.6069 120.113 46.5241C117.245 36.4989 101.535 23.874 95.8268 53.9497C94.2531 62.2188 95.8268 53.9635 92.2659 70.2528C90.2921 71.6217 89.1185 73.2673 89.0385 75.1202C77.9691 82.9191 67.0732 93.4975 50.6425 89.7916C34.2119 86.0857 35.2922 84.9657 24.2095 77.1667C10.3928 67.4181 4.57807 76.0328 4.57807 85.6985C4.57807 105.943 21.7022 103.62 30.3976 102.043C32.5982 101.642 34.8787 101.269 37.2526 100.951C58.5778 97.9777 86.1711 98.2543 112.618 110.409C127.968 117.447 139.037 117.724 149.04 108.902Z" fill="#3B9A9C"/>
<path d="M139.811 157.687C134.596 157.687 129.448 157.064 124.74 155.875C111.31 152.515 102.775 145.228 101.908 136.378C101.868 135.963 102.148 135.603 102.548 135.562C102.935 135.52 103.295 135.825 103.335 136.226C104.135 144.412 112.271 151.215 125.087 154.423C142.625 158.807 166.284 155.391 175.606 140.415C179.287 134.497 179.967 120.835 179.887 110.409C179.834 103.73 179.46 98.4616 179.42 97.867C177.58 89.9298 175.246 83.0988 172.512 77.5815C169.671 71.8291 164.777 64.3758 157.642 61.5273C153.401 59.8403 150.32 60.587 150.293 60.587C150.107 60.6285 149.893 60.6008 149.733 60.4902C149.573 60.3796 149.453 60.1998 149.413 59.9924C146.972 45.3901 141.011 35.3787 134.196 34.5214C129.221 33.913 124.34 38.3794 120.766 46.8144C120.646 47.1048 120.379 47.2707 120.073 47.2569C119.779 47.2431 119.512 47.0218 119.432 46.7314C117.912 41.4077 112.764 35.6415 107.803 35.8904C102.722 36.1393 98.7208 42.6107 96.5336 54.1017C95.7467 58.2501 95.7467 58.2501 95.4933 59.2872C95.2533 60.2551 94.7465 62.274 92.9727 70.391C92.9594 70.4325 92.9594 70.4878 92.946 70.5293C92.826 70.9164 92.4259 71.1377 92.0525 70.9994C91.6924 70.875 91.4924 70.5016 91.5724 70.1283C91.5724 70.1144 91.5724 70.1006 91.5857 70.0868C93.3728 61.9283 93.8796 59.8818 94.1197 58.9C94.3597 57.9182 94.3597 57.9182 95.1466 53.7975C98.0939 38.1305 103.615 34.6044 107.723 34.3969C110.43 34.2725 113.324 35.6 115.898 38.1443C117.699 39.9281 119.232 42.2374 120.193 44.5743C125.301 33.6917 131.222 32.6685 134.369 33.0695C141.811 34.0098 148.026 43.9382 150.693 59.0383C151.947 58.8723 154.641 58.7894 158.042 60.1169C165.657 63.1037 170.805 70.9026 173.779 76.9178C176.566 82.5595 178.94 89.5011 180.821 97.5905C180.834 97.632 180.834 97.6734 180.834 97.7011C180.834 97.7564 181.261 103.288 181.314 110.409C181.394 121.029 180.674 135.009 176.806 141.231C169.631 152.722 154.494 157.687 139.811 157.687Z" fill="black"/>
<path d="M132.182 116.327C126.434 116.327 119.939 114.571 112.324 111.059C84.9041 98.4617 56.4172 99.001 37.346 101.656C35.1188 101.974 32.8115 102.334 30.531 102.748C25.9965 103.578 15.3806 105.5 9.05912 99.9828C5.60495 96.996 3.85786 92.17 3.85786 85.6986C3.85786 79.7664 5.93837 75.0926 9.43254 73.1567C14.247 70.5017 20.3418 73.53 24.6095 76.5445C26.65 77.9826 28.2638 79.1718 29.6774 80.2365C35.8656 84.8274 37.5193 86.0719 50.7892 89.0587C64.6592 92.1977 74.5283 84.8827 84.0639 77.8305C85.5576 76.7242 87.1046 75.5765 88.625 74.5118C100.588 66.0906 124.127 70.239 143.358 84.1637C143.678 84.3987 143.758 84.8551 143.532 85.2008C143.305 85.5326 142.865 85.6156 142.545 85.3805C133.182 78.6048 122.527 73.9725 112.524 72.327C102.975 70.7506 94.7732 71.9675 89.4252 75.7425C87.9182 76.8072 86.3711 77.9411 84.8908 79.0473C75.1017 86.2932 64.9793 93.8017 50.4825 90.5245C36.9192 87.4547 35.0521 86.0719 28.8372 81.4534C27.4236 80.4025 25.8232 79.2133 23.796 77.789C18.1413 73.8066 13.3935 72.6588 10.086 74.4841C7.07197 76.1573 5.27154 80.3472 5.27154 85.7124C5.27154 91.7413 6.84525 96.1663 9.95267 98.8765C15.7541 103.951 25.9165 102.098 30.2642 101.31C32.5715 100.895 34.892 100.522 37.1459 100.204C56.4039 97.5076 85.1708 96.9821 112.898 109.718C128.835 117.046 139.171 116.645 148.573 108.349C151.414 105.846 153.494 102.403 155.161 97.5214C156.041 94.9633 156.695 92.3221 157.348 89.598L157.442 89.2247C158.162 86.2517 158.842 83.4446 159.776 81.1492C160.976 78.1762 162.47 76.4062 164.47 75.5627C166.764 74.5948 169.685 74.9404 173.419 76.586L173.459 76.5998C173.512 76.6275 173.566 76.6413 173.619 76.6689C173.979 76.8349 174.139 77.2774 173.979 77.6507C173.819 78.0241 173.392 78.19 173.032 78.0241C172.992 78.0102 172.952 77.9964 172.925 77.9688L172.859 77.9411C169.485 76.4477 166.924 76.1158 165.003 76.9178C163.39 77.5954 162.136 79.1165 161.096 81.7023C160.202 83.9009 159.535 86.6527 158.829 89.5704L158.735 89.9437C158.068 92.6816 157.402 95.3781 156.508 97.9916C154.761 103.136 152.534 106.772 149.493 109.455C144.305 114.046 138.717 116.327 132.182 116.327Z" fill="black"/>
<path d="M104.469 130.736C97.9739 130.736 91.7058 129.92 85.5843 128.288C85.1975 128.191 84.9708 127.777 85.0642 127.389C85.1575 126.988 85.5576 126.753 85.931 126.85C103.829 131.621 123.207 129.298 145.185 119.729C145.545 119.563 145.972 119.743 146.119 120.13C146.279 120.503 146.106 120.946 145.732 121.098C130.942 127.541 117.299 130.736 104.469 130.736Z" fill="black"/>
<path d="M85.7576 128.302C85.7043 128.302 85.6376 128.288 85.5843 128.275C71.2608 124.458 60.5382 117.019 51.0692 110.45C45.8413 106.828 41.3202 103.689 36.9858 101.739C36.6258 101.573 36.4524 101.144 36.6124 100.757C36.7725 100.384 37.1859 100.204 37.546 100.37C42.0004 102.375 46.5615 105.542 51.8561 109.206C61.2317 115.705 71.8609 123.075 85.9443 126.836C86.3311 126.933 86.5578 127.348 86.4645 127.735C86.3578 128.081 86.0777 128.302 85.7576 128.302Z" fill="black"/>
<path d="M131.315 141.577C131.169 141.577 131.035 141.577 130.889 141.577C121.273 141.535 111.15 139.918 102.402 137.014C100.401 136.35 98.4541 135.617 96.627 134.829C92.1059 132.879 88.305 130.639 85.3176 128.136C85.2909 128.109 85.2776 128.095 85.2509 128.067C84.9842 127.777 84.9842 127.293 85.2776 127.016C85.5443 126.753 85.9711 126.74 86.2378 126.988C89.1052 129.381 92.7861 131.552 97.1738 133.446C98.9609 134.22 100.868 134.94 102.828 135.576C121.153 141.632 143.465 141.522 155.868 135.313C156.228 135.133 156.655 135.285 156.815 135.659C156.988 136.032 156.842 136.474 156.481 136.654C150.067 139.89 141.371 141.577 131.315 141.577Z" fill="black"/>
<path d="M89.0385 75.8528C89.0251 75.8528 89.0251 75.8528 89.0118 75.8528C88.625 75.839 88.3183 75.4933 88.3316 75.0784C88.4117 73.0457 89.5986 71.2066 91.8658 69.6302C96.1735 66.6296 104.349 64.7352 113.191 64.7075C122.687 64.666 131.102 66.6987 136.277 70.294C136.61 70.5152 136.69 70.9854 136.477 71.3172C136.263 71.6629 135.81 71.7459 135.49 71.5247C124.914 64.1682 101.308 64.8458 92.666 70.8609C90.7989 72.1607 89.812 73.5988 89.7587 75.1337C89.732 75.5347 89.4119 75.8528 89.0385 75.8528Z" fill="black"/>
<path d="M168.374 88.2115L158.44 89.4476L159.632 83.6793L160.824 81.6191L168.374 88.2115Z" fill="white"/>
<path d="M165.462 95.8156L156.784 97.3267L157.588 92.4191L158.548 90.63L165.462 95.8156Z" fill="white"/>
<path d="M158.682 90.331C158.322 90.331 158.015 90.0544 157.975 89.6672C157.935 89.2524 158.215 88.8929 158.602 88.8514L166.617 87.9249L159.976 81.9789C159.682 81.7162 159.642 81.246 159.896 80.928C160.149 80.61 160.602 80.5823 160.909 80.845L168.791 87.8973C169.004 88.0909 169.084 88.3951 169.004 88.6855C168.924 88.962 168.684 89.1694 168.404 89.2109L158.762 90.331C158.735 90.331 158.695 90.331 158.682 90.331Z" fill="black"/>
<path d="M155.975 98.4894L155.815 97.7704L155.681 97.0375L163.523 95.4058L157.908 90.3863C157.615 90.1236 157.575 89.6534 157.842 89.3354C158.108 89.0312 158.549 88.9897 158.855 89.2662L158.909 89.3077L165.564 95.2675C165.777 95.4473 165.857 95.7377 165.79 96.0142C165.724 96.2908 165.51 96.4982 165.244 96.5535L155.975 98.4894Z" fill="black"/>
<path d="M135.356 62.2603C139.334 62.2603 142.558 58.911 142.558 54.7794C142.558 50.6478 139.334 47.2985 135.356 47.2985C131.379 47.2985 128.155 50.6478 128.155 54.7794C128.155 58.911 131.379 62.2603 135.356 62.2603Z" fill="white"/>
<path d="M134.703 57.8491C135.783 57.8491 136.663 56.6322 136.663 55.125C136.663 53.6178 135.783 52.4009 134.703 52.4009C133.623 52.4009 132.742 53.6178 132.742 55.125C132.742 56.6184 133.623 57.8491 134.703 57.8491Z" fill="black"/>
<path d="M102.975 62.2603C106.953 62.2603 110.177 58.911 110.177 54.7794C110.177 50.6478 106.953 47.2985 102.975 47.2985C98.9977 47.2985 95.7734 50.6478 95.7734 54.7794C95.7734 58.911 98.9977 62.2603 102.975 62.2603Z" fill="white"/>
<path d="M102.975 57.8491C104.055 57.8491 104.936 56.6322 104.936 55.125C104.936 53.6178 104.055 52.4009 102.975 52.4009C101.895 52.4009 101.015 53.6178 101.015 55.125C101.001 56.6184 101.882 57.8491 102.975 57.8491Z" fill="black"/>
<path d="M103.735 60.5317C100.788 60.5732 98.3074 57.9321 98.3207 54.7516C98.334 51.4883 100.401 49.4694 103.722 49.4832C107.043 49.497 109.083 51.6957 109.017 55.1527C108.95 57.9874 106.496 60.4902 103.735 60.5317ZM118.379 47.6994C115.098 40.9376 109.67 37.6604 102.522 38.0061C95.44 38.3379 89.8653 43.3575 87.5981 50.6862C87.5981 53.4103 86.9046 58.2639 88.665 61.8177C91.5324 67.5701 95.8134 71.1101 102.095 71.6493C109.15 72.2716 114.325 69.0082 118.085 62.9654C118.259 62.6889 119.913 60.1169 119.993 58.1948C120.113 55.443 120.486 52.5254 119.993 50.3682C119.686 49.096 118.459 47.8653 118.379 47.6994Z" fill="#E1C186"/>
<path d="M135.876 60.5317C132.956 60.5179 130.568 58.0704 130.555 55.0559C130.542 51.7095 132.689 49.5109 135.93 49.5109C138.85 49.5109 141.558 52.0276 141.611 54.7655C141.651 57.9183 139.051 60.5456 135.876 60.5317ZM150.747 47.6856C148.226 41.3939 140.331 37.052 133.876 38.172C128.008 39.1815 123.74 42.3342 120.939 47.7133C118.019 50.7001 118.019 58.5267 121.46 62.9793C124.22 68.7179 132.276 73.364 138.784 71.6632C143.665 70.3772 148.266 68.3722 150.026 63.159C151.44 58.9968 152.841 54.6134 150.747 47.6856Z" fill="#E08D8D"/>
<path d="M135.916 50.2574C134.516 50.2574 133.329 50.7137 132.516 51.5711C131.702 52.4146 131.275 53.6314 131.275 55.0557C131.289 57.6553 133.356 59.7848 135.876 59.7848C137.25 59.7848 138.57 59.2179 139.531 58.2223C140.424 57.282 140.918 56.0513 140.891 54.7791C140.851 52.456 138.45 50.2712 135.93 50.2574C135.93 50.2574 135.916 50.2574 135.916 50.2574ZM135.89 61.2782C135.876 61.2782 135.876 61.2782 135.863 61.2782C132.556 61.2644 129.848 58.485 129.835 55.0695C129.822 53.2442 130.395 51.6679 131.489 50.534C132.582 49.3862 134.116 48.7778 135.903 48.7778H135.916C139.211 48.7916 142.251 51.6264 142.305 54.7515C142.331 56.4385 141.705 58.0287 140.531 59.2732C139.331 60.5454 137.637 61.2782 135.89 61.2782ZM103.682 50.2297C100.788 50.2297 99.0409 51.9168 99.0276 54.7653C99.0142 56.1204 99.5477 57.4479 100.481 58.402C101.375 59.3147 102.522 59.8263 103.722 59.7987C106.109 59.771 108.243 57.5862 108.296 55.1387C108.323 53.6452 107.923 52.4007 107.123 51.5434C106.323 50.6999 105.149 50.2436 103.722 50.2297C103.695 50.2297 103.695 50.2297 103.682 50.2297ZM103.655 61.2782C102.108 61.2782 100.615 60.6283 99.4677 59.453C98.2674 58.2223 97.5872 56.5076 97.5872 54.7515C97.6005 51.1009 99.9878 48.7363 103.669 48.7363C103.682 48.7363 103.695 48.7363 103.695 48.7363C105.509 48.7502 107.043 49.3448 108.11 50.4925C109.19 51.6402 109.737 53.2581 109.697 55.1663C109.63 58.4297 106.896 61.2368 103.722 61.2782C103.722 61.2782 103.682 61.2782 103.655 61.2782ZM119.659 59.5636C119.686 59.5636 119.726 59.5636 119.766 59.5636C121.073 59.6189 121.5 60.9049 121.806 61.859C121.9 62.1494 121.993 62.4398 122.1 62.6472C124.634 67.9433 132.236 72.6033 138.61 70.944C143.185 69.7409 147.653 67.9295 149.36 62.9099C150.653 59.0796 152.12 54.7515 150.08 47.9481C147.706 42.0575 140.198 37.8399 133.996 38.9047C128.341 39.8726 124.274 42.8733 121.566 48.0726C121.513 48.1832 121.46 48.3353 121.406 48.5013C121.22 49.0544 120.9 49.9808 119.873 50.0638C118.566 50.1883 118.139 49.0405 117.912 48.4321C117.859 48.28 117.805 48.1417 117.752 48.0449C114.591 41.5597 109.483 38.4345 102.575 38.7526C96.0268 39.0706 90.5855 43.6753 88.3316 50.8105C88.3316 51.3498 88.305 51.9582 88.2649 52.5943C88.1449 55.2216 87.9849 58.8169 89.3052 61.4718C92.2259 67.321 96.4269 70.4047 102.162 70.9025C108.63 71.4694 113.644 68.7315 117.485 62.5504C117.619 62.343 117.699 61.9973 117.779 61.6516C117.965 60.8772 118.286 59.5636 119.659 59.5636ZM135.916 72.7554C129.702 72.7554 123.207 68.289 120.819 63.3109C120.673 63.0067 120.566 62.661 120.446 62.343C120.206 61.5963 120.006 61.0708 119.699 61.057C119.472 61.0432 119.379 61.0847 119.152 62.0388C119.046 62.4674 118.926 62.9652 118.672 63.3801C114.578 69.976 108.963 73.0181 102.028 72.4097C95.7601 71.8704 91.1857 68.5102 88.0249 62.1771C86.5312 59.1626 86.6912 55.3322 86.8113 52.539C86.8379 51.8614 86.8646 51.2254 86.8646 50.6999C86.8646 50.6169 86.8779 50.5478 86.9046 50.4787C89.3185 42.6797 95.2933 37.6325 102.482 37.2868C109.897 36.9273 115.618 40.4258 119.006 47.3812C119.086 47.561 119.152 47.7407 119.219 47.9067C119.486 48.6119 119.553 48.6119 119.726 48.5981C119.819 48.5842 119.886 48.4598 120.046 48.0035C120.113 47.796 120.193 47.5748 120.299 47.3674C123.233 41.7394 127.621 38.4899 133.743 37.4389C140.558 36.2636 148.8 40.9236 151.387 47.395C151.4 47.4227 151.4 47.4365 151.414 47.4642C153.614 54.7653 152.054 59.3562 150.693 63.3939C148.76 69.091 143.678 71.1375 138.944 72.3821C137.97 72.631 136.943 72.7554 135.916 72.7554Z" fill="black"/>
</svg>
